PathFileType	4	(X/Y/Z)	/Users/itak/Documents/Research/Walk-IL/dataset/trc/00443_00167.trc
DataRate	CameraRate	NumFrames	NumMarkers	Units	OrigDataRate	OrigDataStartFrame	OrigNumFrames
100.000000	100.000000	4	54	mm	100.000000	368	491
Frame#	Time	RPSI			LPSI			L3			STRN			T10			C7			CLAV			RBAK			LBAK			LSHO			LUPA			LAEL			LAOL			LWTS			LWPS			LFRA			LIFD			LHPS			RSHO			RUPA			RAEL			RAOL			RWTS			RWPS			RFRA			RIFD			RHTS			RHPS			RBHD			LFHD			RFHD			LBHD			LHIP			RHIP			RASI			LASI			LKNE			LTHI			LANK			LTIP			LTOE			LMT1			LMT5			LHEE			RKNE			RTHI			RANK			RTIP			RTOE			RMT1			RMT5			RHEE			LHTS			*53			
		X1	Y1	Z1	X2	Y2	Z2	X3	Y3	Z3	X4	Y4	Z4	X5	Y5	Z5	X6	Y6	Z6	X7	Y7	Z7	X8	Y8	Z8	X9	Y9	Z9	X10	Y10	Z10	X11	Y11	Z11	X12	Y12	Z12	X13	Y13	Z13	X14	Y14	Z14	X15	Y15	Z15	X16	Y16	Z16	X17	Y17	Z17	X18	Y18	Z18	X19	Y19	Z19	X20	Y20	Z20	X21	Y21	Z21	X22	Y22	Z22	X23	Y23	Z23	X24	Y24	Z24	X25	Y25	Z25	X26	Y26	Z26	X27	Y27	Z27	X28	Y28	Z28	X29	Y29	Z29	X30	Y30	Z30	X31	Y31	Z31	X32	Y32	Z32	X33	Y33	Z33	X34	Y34	Z34	X35	Y35	Z35	X36	Y36	Z36	X37	Y37	Z37	X38	Y38	Z38	X39	Y39	Z39	X40	Y40	Z40	X41	Y41	Z41	X42	Y42	Z42	X43	Y43	Z43	X44	Y44	Z44	X45	Y45	Z45	X46	Y46	Z46	X47	Y47	Z47	X48	Y48	Z48	X49	Y49	Z49	X50	Y50	Z50	X51	Y51	Z51	X52	Y52	Z52	X53	Y53	Z53	X54	Y54	Z54	

369	3.68	670.0676879882812	915.5399169921875	778.7276000976562	769.2039794921875	901.1644897460938	678.28759765625	697.76513671875	1007.528564453125	751.0285034179688	919.2385864257812	1213.576293945312	901.4772338867188	677.6203002929688	1132.114990234375	745.4658203125	715.0624389648438	1402.276733398438	796.4944458007812	886.1788940429688	1325.5029296875	874.0097045898438	616.3914794921875	1278.61572265625	846.7335815429688	737.1640625	1355.36328125	696.574951171875	865.2830810546875	1379.492309570312	674.518798828125	894.3618774414062	1263.657836914062	576.42138671875	908.0386352539062	1049.500732421875	541.355224609375	809.935791015625	1041.539916992188	576.5429077148438	936.607421875	831.0352172851562	582.8967895507812	913.7984008789062	830.0795288085938	512.0480346679688	918.790771484375	960.771484375	528.2322998046875	907.5126342773438	665.84423828125	557.3302612304688	903.2146606445312	748.650634765625	505.1981506347656	695.5962524414062	1373.31591796875	966.4109497070312	651.2367553710938	1315.123901367188	1031.940185546875	685.429443359375	1051.440673828125	1143.500122070312	656.8997192382812	1010.657104492188	1091.692138671875	859.9432373046875	909.9437255859375	1172.583862304688	791.2063598632812	872.8516845703125	1212.16162109375	705.9601440429688	1001.221557617188	1165.35595703125	923.9195556640625	773.3989868164062	1222.879150390625	908.8117065429688	832.2450561523438	1214.962768554688	843.4924926757812	805.6839599609375	1239.511352539062	725.3905029296875	1589.252563476562	914.1055297851562	923.66259765625	1624.759765625	867.56982421875	847.5110473632812	1615.684448242188	973.0146484375	815.469970703125	1605.753295898438	761.7228393554688	960.2774047851562	817.687744140625	702.4276733398438	649.9615478515625	822.1544189453125	962.0227661132812	769.8634033203125	861.5628051757812	991.9572143554688	958.1673583984375	865.0457763671875	822.4031372070312	1110.880493164062	450.4557189941406	834.7079467773438	1075.148559570312	592.9110107421875	794.9321899414062	1246.811767578125	54.8088264465332	904.1577758789062	1174.9267578125	319.0317077636719	855.1578979492188	1332.59521484375	170.8125305175781	1086.025512695312	1265.58203125	136.9259033203125	1061.981201171875	1342.0869140625	129.7620239257812	982.82470703125	1178.0791015625	30.93566513061523	905.1726684570312	669.1115112304688	430.7889709472656	904.7125854492188	698.0038452148438	679.0449829101562	1009.771789550781	545.8062744140625	48.54373931884766	765.155517578125	631.6541748046875	288.8688049316406	872.9411010742188	749.527099609375	38.15709686279297	848.6416625976562	716.45361328125	44.32444381713867	782.3005981445312	638.7374877929688	42.56339263916016	860.4545288085938	515.9982299804688	49.50202178955078	689.3880615234375	935.1278076171875	739.7542724609375	567.8046875	nan	nan	nan	
370	3.69	679.111083984375	913.7340087890625	783.193359375	778.5441284179688	898.8846435546875	683.1846923828125	706.7379150390625	1005.3662109375	755.421875	928.1948852539062	1211.517700195312	906.3145141601562	686.7813110351562	1129.993041992188	749.674072265625	724.4411010742188	1400.227661132812	800.4530029296875	895.3582763671875	1323.416259765625	878.5302124023438	625.547119140625	1276.662231445312	850.5447387695312	746.7574462890625	1353.042358398438	700.6211547851562	874.8902587890625	1376.986938476562	678.77294921875	903.982666015625	1260.722778320312	581.0826416015625	917.4277954101562	1046.568969726562	546.5604858398438	819.3345336914062	1038.879272460938	581.8074951171875	944.9672241210938	827.8054809570312	587.5654907226562	922.0869750976562	827.2445678710938	516.7470703125	927.8073120117188	957.8564453125	533.2984619140625	914.4337158203125	662.8993530273438	561.3258666992188	910.8037109375	745.9227905273438	509.5809326171875	704.4293212890625	1371.453247070312	970.4495849609375	659.8339233398438	1313.217529296875	1035.87451171875	693.0989379882812	1049.23779296875	1147.050415039062	664.624267578125	1008.412719726562	1094.8486328125	866.98291015625	907.3147583007812	1176.415405273438	798.0125122070312	870.2318115234375	1215.602783203125	713.3212890625	998.8583374023438	1168.828369140625	930.6558227539062	770.7108154296875	1226.866455078125	915.61865234375	829.5938110351562	1219.009521484375	850.27978515625	803.1077880859375	1243.364379882812	734.2977905273438	1587.269653320312	917.9131469726562	932.7010498046875	1622.862426757812	871.968505859375	856.2278442382812	1613.76220703125	977.1456298828125	824.8767700195312	1603.759765625	765.7933349609375	969.7468872070312	815.9457397460938	708.0526733398438	657.9877319335938	820.8133544921875	966.33154296875	777.9461669921875	859.7319946289062	996.8661499023438	966.9467163085938	863.2175903320312	828.0733032226562	1121.39990234375	449.7902526855469	842.0792236328125	1085.1953125	591.9246215820312	801.4458618164062	1258.637084960938	54.89764404296875	913.9268798828125	1185.961181640625	318.5658874511719	863.4381713867188	1344.438720703125	172.2636108398438	1094.814819335938	1277.514892578125	137.9639129638672	1071.191284179688	1353.848266601562	130.5878601074219	991.9092407226562	1189.96923828125	30.77056694030762	915.2902221679688	674.325927734375	429.7760620117188	908.3148193359375	705.871826171875	677.3076782226562	1014.644653320312	545.9811401367188	49.9298210144043	765.5237426757812	634.9879760742188	288.6005859375	875.350830078125	749.4722290039062	38.12465667724609	848.725830078125	716.5609130859375	44.58045959472656	782.4417724609375	638.7522583007812	42.55550003051758	860.5668334960938	516.2845458984375	52.09921646118164	689.6651611328125	942.7034912109375	736.5223999023438	572.12255859375	nan	nan	nan	
371	3.7	688.3502197265625	912.1528930664062	787.6890869140625	788.0203857421875	896.69677734375	688.1107177734375	715.8339233398438	1003.307067871094	759.8269653320312	937.301513671875	1209.598876953125	911.1490478515625	696.083984375	1127.975708007812	753.89404296875	733.9395751953125	1398.279907226562	804.3933715820312	904.6461181640625	1321.466918945312	883.0784301757812	634.823974609375	1274.796264648438	854.3378295898438	756.4904174804688	1350.843505859375	704.6517333984375	884.6563720703125	1374.622192382812	683.0634155273438	913.8353881835938	1257.935546875	585.80322265625	927.1066284179688	1043.758911132812	551.886474609375	828.9780883789062	1036.345458984375	587.0526123046875	953.637939453125	824.7484741210938	592.5303344726562	930.7888793945312	824.5228881835938	521.710205078125	937.15234375	955.0609130859375	538.5537719726562	921.7855224609375	660.1023559570312	565.6944580078125	918.8569946289062	743.3018798828125	514.2684326171875	713.327392578125	1369.667846679688	974.4945678710938	668.4962158203125	1311.385986328125	1039.79248046875	700.6783447265625	1046.955932617188	1150.35400390625	672.2808837890625	1006.136901855469	1097.759033203125	873.7117919921875	904.326904296875	1180.037353515625	804.4262084960938	867.3099365234375	1218.708129882812	720.5198974609375	996.3753662109375	1172.067993164062	936.8324584960938	767.5162353515625	1230.503784179688	921.9567260742188	826.4442138671875	1222.786987304688	856.51904296875	800.0729370117188	1246.796875	743.3074951171875	1585.38037109375	921.744873046875	941.839111328125	1621.07177734375	876.3757934570312	865.0482177734375	1611.94677734375	981.28662109375	834.3591918945312	1601.85888671875	769.87744140625	979.3128662109375	814.2244873046875	713.5332641601562	666.2581176757812	819.6516723632812	970.6641235351562	786.2891235351562	858.0400390625	1001.748229980469	975.9691162109375	861.5196533203125	833.6173706054688	1132.094604492188	449.2123413085938	849.6185302734375	1095.399658203125	591.0652465820312	807.9022216796875	1269.127075195312	54.23895645141602	922.4966430664062	1196.792358398438	317.6711120605469	871.6304321289062	1355.601318359375	172.2265319824219	1102.556640625	1288.630615234375	137.7115936279297	1079.418334960938	1364.594360351562	130.2923736572266	999.8002319335938	1200.4853515625	29.94317245483398	924.2932739257812	679.6558227539062	428.9042358398438	912.02880859375	714.0001831054688	675.7091064453125	1019.491027832031	546.1582641601562	51.52201461791992	766.0641479492188	638.3978881835938	288.5246887207031	877.8828125	749.4176635742188	38.09775543212891	848.806884765625	716.6451416015625	44.92472839355469	782.6321411132812	638.7794189453125	42.54131317138672	860.7474975585938	516.5224609375	55.03513336181641	690.17236328125	950.67041015625	733.4595336914062	576.8031616210938	nan	nan	nan	
372	3.71	697.8286743164062	910.8060302734375	792.2182006835938	797.6718139648438	894.6190185546875	693.0728149414062	725.0899047851562	1001.353393554688	764.2451171875	946.5734252929688	1207.83544921875	915.9863891601562	705.5564575195312	1126.064575195312	758.1248779296875	743.5540161132812	1396.430297851562	808.3224487304688	914.0457763671875	1319.668579101562	887.654052734375	644.2284545898438	1273.01953125	858.1154174804688	766.3578491210938	1348.769897460938	708.6810913085938	894.5728149414062	1372.412719726562	687.3897094726562	923.9053955078125	1255.322998046875	590.5726928710938	937.0662231445312	1041.094848632812	557.3228759765625	838.8587646484375	1033.961059570312	592.274169921875	962.6188354492188	821.890625	597.8023681640625	939.9097900390625	821.93115234375	526.9456176757812	946.8150024414062	952.4049072265625	543.9923706054688	929.6080932617188	657.4714965820312	570.460693359375	927.4088745117188	740.8043823242188	519.2767944335938	722.2970581054688	1367.970336914062	978.5404052734375	677.2392578125	1309.639038085938	1043.69287109375	708.1453247070312	1044.591186523438	1153.374633789062	679.8714599609375	1003.850769042969	1100.440063476562	880.1304321289062	900.990234375	1183.450561523438	810.4652709960938	864.1084594726562	1221.49365234375	727.5693359375	993.7924194335938	1175.0830078125	942.4491577148438	763.8174438476562	1233.7861328125	927.8195190429688	822.80322265625	1226.274169921875	862.1762084960938	796.5682373046875	1249.757568359375	752.4269409179688	1583.599731445312	925.594970703125	951.0850219726562	1619.3876953125	880.7784423828125	873.98486328125	1610.25	985.4284057617188	843.91259765625	1600.048095703125	773.9779663085938	988.9913330078125	812.5130004882812	718.9098510742188	674.77294921875	818.6710205078125	975.03125	794.8871459960938	856.491943359375	1006.626831054688	985.2548217773438	859.9447021484375	839.077392578125	1142.93017578125	448.6879272460938	857.2807006835938	1105.74072265625	590.2941284179688	814.3187866210938	1278.370971679688	52.83631896972656	929.9696044921875	1207.395629882812	316.3494873046875	879.6951904296875	1366.01611328125	170.7888641357422	1109.396362304688	1298.888549804688	136.2443542480469	1086.745971679688	1374.350952148438	128.9113006591797	1006.658447265625	1209.721923828125	28.47442245483398	932.2257690429688	685.093505859375	428.1833801269531	915.84375	722.3837280273438	674.2545166015625	1024.334228515625	546.3555908203125	53.33878326416016	766.7652587890625	641.8937377929688	288.6476440429688	880.537109375	749.37060546875	38.07370376586914	848.8909912109375	716.7160034179688	45.3404426574707	782.8939208984375	638.82568359375	42.52471542358398	860.9881591796875	516.7479858398438	58.31666946411133	690.8973388671875	959.0512084960938	730.5902099609375	581.8656616210938	nan	nan	nan	
